<?xml version="1.0" encoding="UTF-8" standalone="no"?>
<svg
   viewBox="0 0 100 100"
   fill="none"
   version="1.1"
   id="svg11"
   sodipodi:docname="icon.svg"
   inkscape:version="1.4.2 (ebf0e940d0, 2025-05-08)"
   xmlns:inkscape="http://www.inkscape.org/namespaces/inkscape"
   xmlns:sodipodi="http://sodipodi.sourceforge.net/DTD/sodipodi-0.dtd"
   xmlns:xlink="http://www.w3.org/1999/xlink"
   xmlns="http://www.w3.org/2000/svg"
   xmlns:svg="http://www.w3.org/2000/svg">
  <sodipodi:namedview
     id="namedview11"
     pagecolor="#ffffff"
     bordercolor="#000000"
     borderopacity="0.25"
     inkscape:showpageshadow="2"
     inkscape:pageopacity="0.0"
     inkscape:pagecheckerboard="0"
     inkscape:deskcolor="#d1d1d1"
     inkscape:zoom="11.09"
     inkscape:cx="41.253381"
     inkscape:cy="49.098287"
     inkscape:window-width="2560"
     inkscape:window-height="1389"
     inkscape:window-x="2560"
     inkscape:window-y="27"
     inkscape:window-maximized="1"
     inkscape:current-layer="svg11" />
  <mask
     id="mask0"
     mask-type="alpha"
     maskUnits="userSpaceOnUse"
     x="0"
     y="0"
     width="100"
     height="100">
    <path
       fill-rule="evenodd"
       clip-rule="evenodd"
       d="M70.9119 99.3171C72.4869 99.9307 74.2828 99.8914 75.8725 99.1264L96.4608 89.2197C98.6242 88.1787 100 85.9892 100 83.5872V16.4133C100 14.0113 98.6243 11.8218 96.4609 10.7808L75.8725 0.873756C73.7862 -0.130129 71.3446 0.11576 69.5135 1.44695C69.252 1.63711 69.0028 1.84943 68.769 2.08341L29.3551 38.0415L12.1872 25.0096C10.589 23.7965 8.35363 23.8959 6.86933 25.2461L1.36303 30.2549C-0.452552 31.9064 -0.454633 34.7627 1.35853 36.417L16.2471 50.0001L1.35853 63.5832C-0.454633 65.2374 -0.452552 68.0938 1.36303 69.7453L6.86933 74.7541C8.35363 76.1043 10.589 76.2037 12.1872 74.9905L29.3551 61.9587L68.769 97.9167C69.3925 98.5406 70.1246 99.0104 70.9119 99.3171ZM75.0152 27.2989L45.1091 50.0001L75.0152 72.7012V27.2989Z"
       fill="white"
       id="path1" />
  </mask>
  <path
     d="M 73.277344,0.26757813 C 72.71873,0.26151448 72.161666,0.3311395 71.621094,0.46875 71.175746,0.58225792 70.737522,0.72864657 70.324219,0.93945313 70.217489,0.99385877 70.11949,1.0661806 70.015625,1.1269531 c -0.278179,0.162824 -0.543188,0.3488363 -0.796875,0.5566406 0.04312,-0.031182 0.08896,-0.0531 0.132812,-0.082031 -0.07767,0.051269 -0.15518,0.1057103 -0.230468,0.1640625 C 68.997008,1.8715793 68.866816,1.9671687 68.75,2.0839844 L 29.3125,38.041016 12.134766,25.009766 C 11.335216,24.403216 10.376668,24.124071 9.4316406,24.166016 8.486613,24.20796 7.555105,24.570994 6.8125,25.246094 l -5.5097656,5.007812 c -1.81668702,1.6515 -1.81817927,4.50791 -0.00391,6.16211 L 16.197266,50 1.2988281,63.583984 c -1.81427297,1.6541 -1.81278072,4.51061 0.00391,6.16211 L 6.8125,74.753906 c 1.48521,1.3502 3.723166,1.449428 5.322266,0.236328 L 29.3125,61.958984 68.75,97.916016 c 0.141972,0.141971 0.298575,0.260804 0.451172,0.386718 l 0.002,0.002 c 0.600901,0.495383 1.270963,0.880856 1.988281,1.119141 0.05998,0.0199 0.125047,0.02686 0.185547,0.04492 1.453765,0.433157 3.049887,0.345149 4.480469,-0.34375 L 96.460937,89.203125 C 98.624138,88.161525 100,85.973166 100,83.572266 V 83.333984 16.666016 16.414062 c -0.0053,-2.395591 -1.380002,-4.57758 -3.539063,-5.617187 L 75.857422,0.875 C 75.560248,0.73191863 75.256091,0.61434364 74.947266,0.52148437 h -0.002 v -0.001953 h -0.002 C 74.39612,0.35539407 73.835957,0.27364177 73.277344,0.26757813 Z M 71.105469,1.0097656 c 0.03517,-0.00201 0.07031,0.00293 0.105468,0.00195 -0.310409,0.00928 -0.622616,0.059657 -0.927734,0.1523438 0.270665,-0.084515 0.546086,-0.1385088 0.822266,-0.1542969 z M 75,27.298828 V 72.701172 L 45.076172,50 Z"
     style="display:inline;fill:url(#linearGradient13);fill-rule:nonzero"
     id="path11" />
  <defs
     id="defs11">
    <linearGradient
       id="swatch120"
       inkscape:swatch="solid">
      <stop
         style="stop-color:#ff0000;stop-opacity:1;"
         offset="0"
         id="stop120" />
    </linearGradient>
    <inkscape:perspective
       sodipodi:type="inkscape:persp3d"
       inkscape:vp_x="-71.907767 : 124.54791 : 0"
       inkscape:vp_y="-500 : -866.0254 : 0"
       inkscape:vp_z="157.10682 : 0 : 0"
       inkscape:persp3d-origin="290.66727 : 36.5795 : 1"
       id="perspective16" />
    <linearGradient
       id="linearGradient11"
       inkscape:collect="always">
      <stop
         style="stop-color:#1e9be5;stop-opacity:1;"
         offset="0"
         id="stop13" />
      <stop
         style="stop-color:#cc00c2;stop-opacity:1;"
         offset="0.46341464"
         id="stop14" />
      <stop
         style="stop-color:#ffb2f7;stop-opacity:1;"
         offset="0.74885672"
         id="stop16" />
      <stop
         style="stop-color:#cc00c2;stop-opacity:1;"
         offset="0.75332493"
         id="stop15" />
      <stop
         style="stop-color:#1e9be5;stop-opacity:1;"
         offset="1"
         id="stop12" />
    </linearGradient>
    <filter
       id="filter0_d"
       x="-8.39411"
       y="15.8291"
       width="116.727"
       height="92.2456"
       filterUnits="userSpaceOnUse"
       color-interpolation-filters="sRGB">
      <feFlood
         flood-opacity="0"
         result="BackgroundImageFix"
         id="feFlood6" />
      <feColorMatrix
         in="SourceAlpha"
         type="matrix"
         values="0 0 0 0 0 0 0 0 0 0 0 0 0 0 0 0 0 0 127 0"
         id="feColorMatrix6" />
      <feOffset
         id="feOffset6" />
      <feGaussianBlur
         stdDeviation="4.16667"
         id="feGaussianBlur6" />
      <feColorMatrix
         type="matrix"
         values="0 0 0 0 0 0 0 0 0 0 0 0 0 0 0 0 0 0 0.25 0"
         id="feColorMatrix7" />
      <feBlend
         mode="overlay"
         in2="BackgroundImageFix"
         result="effect1_dropShadow"
         id="feBlend7" />
      <feBlend
         mode="normal"
         in="SourceGraphic"
         in2="effect1_dropShadow"
         result="shape"
         id="feBlend8" />
    </filter>
    <filter
       id="filter1_d"
       x="60.4167"
       y="-8.07558"
       width="47.9167"
       height="116.151"
       filterUnits="userSpaceOnUse"
       color-interpolation-filters="sRGB">
      <feFlood
         flood-opacity="0"
         result="BackgroundImageFix"
         id="feFlood8" />
      <feColorMatrix
         in="SourceAlpha"
         type="matrix"
         values="0 0 0 0 0 0 0 0 0 0 0 0 0 0 0 0 0 0 127 0"
         id="feColorMatrix8" />
      <feOffset
         id="feOffset8" />
      <feGaussianBlur
         stdDeviation="4.16667"
         id="feGaussianBlur8" />
      <feColorMatrix
         type="matrix"
         values="0 0 0 0 0 0 0 0 0 0 0 0 0 0 0 0 0 0 0.25 0"
         id="feColorMatrix9" />
      <feBlend
         mode="overlay"
         in2="BackgroundImageFix"
         result="effect1_dropShadow"
         id="feBlend9" />
      <feBlend
         mode="normal"
         in="SourceGraphic"
         in2="effect1_dropShadow"
         result="shape"
         id="feBlend10" />
    </filter>
    <linearGradient
       id="paint0_linear"
       x1="49.9392"
       y1="0.257812"
       x2="49.9392"
       y2="99.7423"
       gradientUnits="userSpaceOnUse">
      <stop
         stop-color="white"
         id="stop10" />
      <stop
         offset="1"
         stop-color="white"
         stop-opacity="0"
         id="stop11" />
    </linearGradient>
    <linearGradient
       inkscape:collect="always"
       xlink:href="#linearGradient11"
       id="linearGradient13"
       x1="-0.060832378"
       y1="50.000278"
       x2="99.999992"
       y2="50.000278"
       gradientUnits="userSpaceOnUse" />
  </defs>
</svg>
